<svg width="12" height="11" fill="none" xmlns="http://www.w3.org/2000/svg"><path d="M10.23 5.213A4.626 4.626 0 001 5.624a4.624 4.624 0 007.61 3.532" stroke="#002D31" stroke-linecap="round" stroke-linejoin="round"/><path d="M8.369 4.568l1.835 1.245 1.244-1.835" stroke="#002D31" stroke-linecap="round" stroke-linejoin="round"/><path d="M6.25 7.623H5.32V4.667l-.912.266V4.23l1.756-.607h.085v4z" fill="#002D31"/><path fill-rule="evenodd" clip-rule="evenodd" d="M6.569 7.622a.319.319 0 01-.32.32h-.928a.319.319 0 01-.319-.32v-2.53L4.5 5.24a.319.319 0 01-.409-.306V4.23c0-.136.086-.257.215-.302l1.755-.607a.319.319 0 01.104-.017h.086c.176 0 .319.143.319.319v4zM5.32 4.667v2.955h.929v-4h-.086L4.41 4.23v.703l.912-.266z" fill="#002D31"/></svg>